# xmcd
#
# Track frame offsets:
# 150
# 19890
# 50471
# 79352
# 104808
# 127963
#
# Disc length: 2210 seconds
#
#
# Revision: 0
# Processed by: cddbd v1.5.1PL0 Copyright (c) Steve Scherf et al.
# Submitted via: FreeRIP 2.90 
#
DISCID=4e08a006
DTITLE=Breakaway - Live at Someplace Else
DYEAR=2004
DGENRE=Blues
TTITLE0=Bill Collector [live]
TTITLE1=Driving With My Lights Off [live]
TTITLE2=Crescent Street Blues [live]
TTITLE3=Get Out And Love Somebody [live]
TTITLE4=Driving Into Bayville [live]
TTITLE5=The Bottle [live]
EXTD=Bluesfestradio.com
EXTT0=
EXTT1=
EXTT2=
EXTT3=
EXTT4=
EXTT5=
PLAYORDER=
